<?xml version="1.0" standalone="no"?>
<!DOCTYPE svg PUBLIC "-//W3C//DTD SVG 20010904//EN"
 "http://www.w3.org/TR/2001/REC-SVG-20010904/DTD/svg10.dtd">
<svg version="1.0" xmlns="http://www.w3.org/2000/svg"
 width="594.000000pt" height="729.000000pt" viewBox="0 0 594.000000 729.000000"
 preserveAspectRatio="xMidYMid meet">

<g transform="translate(0.000000,729.000000) scale(0.100000,-0.100000)"
fill="#000000" stroke="none">
<path d="M824 6971 c-101 -25 -198 -104 -242 -199 l-27 -57 0 -2940 0 -2940
27 -56 c35 -70 97 -132 168 -167 l55 -27 2130 -3 2130 -2 58 21 c79 30 149 94
189 177 l33 67 3 2487 2 2487 -21 58 c-19 55 -45 82 -514 549 -353 350 -509
499 -547 520 l-53 29 -1680 2 c-924 0 -1694 -2 -1711 -6z m3196 -756 c5 -534
3 -514 64 -551 29 -18 63 -19 514 -22 l482 -3 0 -2374 c0 -2351 0 -2375 -20
-2395 -11 -11 -30 -22 -42 -25 -13 -3 -953 -4 -2090 -3 l-2067 3 -23 23 -23
23 -3 2867 c-1 1577 0 2877 3 2889 3 12 15 32 27 43 22 20 26 20 1597 18
l1576 -3 5 -490z m604 31 c179 -175 326 -323 326 -328 0 -4 -147 -7 -332 -6
l-333 3 -3 328 c-1 192 1 327 7 325 5 -1 155 -146 335 -322z"/>
<path d="M2618 4561 c-213 -59 -376 -220 -449 -443 -29 -87 -36 -258 -16 -355
49 -228 213 -420 423 -494 84 -29 239 -37 324 -15 133 33 295 138 335 217 44
84 -20 189 -115 189 -39 0 -63 -12 -119 -61 -100 -88 -213 -116 -328 -80 -273
84 -361 459 -160 678 52 57 99 87 167 107 70 21 104 20 182 -4 43 -13 84 -36
128 -71 52 -43 73 -53 110 -56 54 -5 87 11 117 56 30 44 30 98 0 142 -35 53
-153 136 -242 170 -105 41 -253 49 -357 20z"/>
<path d="M3458 4500 c-39 -39 -40 -42 -36 -93 5 -45 122 -347 300 -772 11 -27
48 -117 82 -200 69 -170 92 -195 173 -195 86 0 89 6 309 555 108 270 205 511
215 538 25 63 24 107 -4 148 -27 41 -60 59 -107 59 -43 0 -77 -17 -102 -50
-10 -14 -83 -187 -163 -385 -79 -198 -148 -361 -152 -362 -9 -3 -15 10 -182
422 -148 364 -155 375 -244 375 -44 0 -54 -4 -89 -40z"/>
<path d="M1602 2710 l-144 -5 -34 -37 c-56 -62 -45 -148 25 -195 l34 -23 1466
0 c1401 0 1468 1 1500 18 90 48 91 181 1 227 -26 13 -189 15 -1367 18 -736 1
-1402 0 -1481 -3z"/>
<path d="M1429 1861 c-35 -35 -39 -44 -39 -88 0 -36 6 -58 21 -77 47 -60 -56
-56 1547 -56 l1469 0 34 23 c66 44 75 137 19 200 l-28 32 -1492 3 -1492 2 -39
-39z"/>
</g>
</svg>
